<svg xmlns="http://www.w3.org/2000/svg" xmlns:xlink="http://www.w3.org/1999/xlink" version="1.1" x="0px" y="0px" viewBox="0 0 183.92 256.831" enable-background="new 0 0 183.92 256.831" xml:space="preserve"><g><path d="M15.168,37.432c-1.802-3.434-2.666-5.282-2.666-5.282C12.718,33.442,13.672,35.244,15.168,37.432z"></path><path d="M173.212,53.678c-6.534,5.721-21.937,19.396-38.235,35.228c2.541-5.281,5.264-10.855,8.192-16.756   c0,0-4.216,7.654-10.261,18.773c-5.467,5.348-10.994,10.908-16.286,16.465c2.713-4.819,5.698-10.199,8.662-15.689   c20.171-24.372,42.552-51.549,42.552-51.549c-4.74,3.16-21.96,21.711-32.599,32.322c4.114-8.427,7.207-15.668,7.932-19.655   c0,0-10.933,15.957-22.436,33.681c-1.506,1.6-3.109,3.336-4.763,5.151c13.665-21.64,35.384-57.388,41.198-74.832   c0,0-20.587,27.927-37.529,54.362c7.572-14.5,15.8-30.42,16.863-35.029c0,0-14.652,21.98-26.229,41.057   c5.886-15.636,12.317-35.983,15.517-46.35c-4.388,11.849-13.867,29.563-20.412,41.272c1.33-5.154,3.757-28.992,3.125-35.312   c0,0-3.248,16.827-6.207,29.266c1.533-23.097,2.89-43.508,3.54-53.266c0,0-5.188,21.085-9.888,51.808   c-0.445-5.614-1.058-13.609-1.445-19.808c0,0-2.381,8.211-2.809,18.455c-2.611-21.331-6.953-53.75-9.191-59.121   c0,0,2.03,33.638,4.369,58.457c-5.649-20.729-12.369-43.719-12.369-35.79c0,1.443,8.33,42.803,13.971,64.971   c-5.87-17.357-14.82-45.392-15.305-58.971c0,0,1.587,34.588,8.045,58.666C71.272,61.649,58.511,25.965,53.17,22.15   c0,0,13.196,35.857,23.592,71.067c-0.391-0.473-0.785-0.951-1.185-1.434c-10.007-24.87-22.037-53.461-27.075-60.299   c0,0,7.279,22.484,15.623,46.655c-3.11-3.649-6.323-7.372-9.562-11.059C47.871,53.884,30.632,18.646,31.17,6.817   c0,0-1.885,18.416,10.23,45.706c-8.497-9.079-16.413-16.808-22.23-21.039c0,0,34.336,49.945,55.546,76.399   c1.598,4.304,3.137,8.339,4.569,11.944c-6.389-10.287-14.381-22.706-21.449-32.344c-12.298-16.77-34.9-38.69-42.668-50.052   c2.932,5.587,8.362,15.387,16.631,28.298c-4.1-3.716-8.124-6.781-11.963-8.914c0,0,14.237,16.146,29.971,36.039   c-2.449-2.523-4.896-4.793-7.304-6.706c0,0-32.667-31.333-34.667-32c0,0,16,20,32.667,36.667c6.849,6.849,23.4,26.624,35.15,46.01   c-4.554-5.438-10.141-11.087-16.971-16.649C50.686,108.755,42.791,98.646,37.17,94.15c0,0,4.256,7.06,10.472,17.896   c-4.412-2.938-9.222-5.81-14.472-8.562c0,0,8.967,7.262,19.724,17.806c7.856,13.962,17.384,31.512,25.462,48.194h-9.688   l1.667-8.938l-14.926,3.513l4.096,5.426h-3.002v9.333h2.989l4.678,72h50.667l4.678-72h3.655v-9.333h-21.238   c1.982-7.846,6.662-22.147,17.633-47.183c14.32-19.765,28.272-33.484,28.272-33.484c-6.458,4.779-12.385,9.834-17.753,14.877   C145.519,84.239,162.849,63.305,173.212,53.678z M84.695,102.028c0.275,0.664,0.556,1.306,0.844,1.928   c-0.118-0.145-0.24-0.295-0.359-0.443C85.019,103.02,84.858,102.527,84.695,102.028z"></path><path d="M173.212,53.678c2.102-1.84,3.291-2.861,3.291-2.861C175.509,51.605,174.405,52.571,173.212,53.678z"></path><path d="M125.791,30.857c0.942-2.544,1.653-4.822,2.046-6.707C127.836,24.15,127.073,26.703,125.791,30.857z"></path></g></svg>